<?xml version="1.0" standalone="no"?>
<!DOCTYPE svg PUBLIC "-//W3C//DTD SVG 20010904//EN"
 "http://www.w3.org/TR/2001/REC-SVG-20010904/DTD/svg10.dtd">
<svg version="1.0" xmlns="http://www.w3.org/2000/svg"
 width="1025.000000pt" height="1025.000000pt" viewBox="0 0 1025.000000 1025.000000"
 preserveAspectRatio="xMidYMid meet">

<g transform="translate(0.000000,1025.000000) scale(0.100000,-0.100000)"
fill="#000" stroke="none">
<path d="M4915 9214 c-470 -32 -886 -123 -1285 -281 -1187 -471 -2081 -1452
-2436 -2673 -316 -1087 -162 -2276 421 -3245 618 -1029 1647 -1733 2825 -1934
244 -42 405 -54 690 -54 285 0 446 12 690 54 1271 217 2365 1020 2958 2172
373 724 521 1572 417 2387 -228 1786 -1600 3216 -3377 3520 -65 11 -181 26
-260 35 -142 15 -527 26 -643 19z m1618 -1889 c59 -8 129 -20 155 -25 56 -13
219 -75 332 -126 89 -41 90 -44 64 -120 -9 -26 -13 -59 -10 -75 4 -21 1 -28
-14 -32 -26 -7 -25 -19 5 -51 26 -28 31 -45 17 -62 -8 -9 -26 -78 -36 -145 -4
-20 -22 -54 -41 -77 -28 -32 -46 -43 -86 -51 -73 -16 -264 -13 -414 5 -238 30
-522 10 -825 -57 -74 -17 -187 -41 -250 -54 -230 -48 -449 -126 -554 -197 -69
-47 -246 -219 -266 -259 -36 -69 -17 -164 44 -229 19 -19 39 -45 45 -57 7 -14
27 -27 54 -33 24 -7 57 -26 77 -47 54 -54 196 -140 436 -263 255 -131 286
-149 279 -160 -3 -5 3 -11 14 -15 11 -3 37 -20 58 -36 21 -17 67 -49 103 -70
36 -22 74 -45 85 -52 11 -6 39 -23 62 -37 23 -13 44 -33 47 -43 4 -15 10 -18
30 -13 19 5 29 1 38 -14 7 -12 31 -29 53 -39 50 -23 256 -203 268 -233 7 -19
10 -20 17 -8 8 12 20 4 62 -42 71 -77 148 -138 174 -138 27 0 70 -55 96 -124
35 -91 35 -213 -1 -431 -37 -224 -47 -255 -99 -332 -47 -69 -176 -194 -252
-244 -217 -143 -371 -217 -675 -324 -255 -90 -532 -128 -765 -107 -460 44
-521 52 -683 98 -345 97 -517 198 -875 516 -155 138 -242 258 -242 334 0 43
39 110 84 145 14 11 31 38 37 59 16 52 63 107 98 115 16 3 47 22 70 42 35 29
41 41 39 67 -3 28 0 31 25 31 18 0 36 9 47 23 10 12 25 22 32 22 8 0 20 11 26
25 14 30 22 31 95 5 31 -11 65 -20 75 -20 16 0 74 -54 250 -235 88 -90 283
-217 390 -255 43 -15 87 -32 98 -38 10 -5 69 -24 129 -41 124 -35 322 -62 501
-68 118 -4 126 -3 270 37 306 84 513 169 597 242 35 30 41 43 68 151 16 65 29
131 29 148 0 28 -47 176 -70 218 -6 12 -31 44 -55 71 -25 28 -45 57 -45 65 0
22 -15 28 -325 134 -120 42 -358 96 -560 129 -125 20 -232 45 -350 82 -161 49
-172 55 -211 96 l-42 44 -58 -6 c-66 -7 -83 2 -192 101 -134 121 -284 433
-267 556 4 27 11 49 16 49 5 0 9 -4 9 -10 0 -5 7 -7 15 -4 17 7 21 54 5 54
-16 0 -11 65 9 122 11 29 22 72 26 96 6 36 4 41 -9 36 -9 -3 -16 -2 -16 2 0
15 14 30 33 37 18 7 24 27 7 27 -5 0 -10 5 -10 11 0 6 6 9 14 6 8 -3 16 2 19
14 5 17 3 18 -10 7 -12 -10 -17 -9 -28 6 -13 17 -14 16 -26 -6 -8 -14 -14 -18
-17 -10 -4 14 91 197 144 278 43 64 114 132 179 169 28 16 64 41 80 57 17 16
59 57 95 91 55 53 92 76 235 147 94 46 179 91 190 100 29 24 391 126 531 150
66 11 134 24 150 30 16 5 79 18 139 29 330 61 644 73 908 36z m-2663 -1153 c0
-13 -12 -22 -22 -16 -10 6 -1 24 13 24 5 0 9 -4 9 -8z m10 -128 c0 -20 -5 -54
-11 -74 -8 -28 -9 -47 -1 -69 6 -17 8 -31 3 -31 -14 0 -31 24 -31 46 0 13 -7
29 -15 38 -8 8 -15 26 -15 41 0 14 7 28 15 31 8 4 15 13 15 21 0 8 5 11 10 8
6 -3 10 1 10 9 0 9 5 16 10 16 6 0 10 -16 10 -36z m2116 -1019 c38 -29 42 -30
46 -9 6 32 367 -268 444 -369 24 -33 44 -63 44 -68 0 -21 -21 -6 -51 36 -35
48 -186 183 -284 253 -65 47 -49 31 98 -96 95 -82 111 -102 82 -102 -20 0
-173 124 -275 223 -25 25 -70 61 -100 82 -72 51 -73 51 -66 64 11 17 26 13 62
-14z"/>
<path d="M4063 5833 c5 -22 -16 -39 -34 -27 -13 7 -12 5 17 -86 14 -45 22 -85
18 -88 -4 -4 -9 -2 -11 5 -2 6 -17 30 -33 52 -16 21 -35 61 -43 88 -13 41 -15
45 -20 23 -17 -85 14 -238 64 -309 55 -78 121 -152 143 -161 12 -4 29 -17 39
-28 15 -16 23 -18 45 -10 24 10 31 7 59 -21 17 -17 39 -31 48 -31 10 0 30 -11
46 -24 42 -35 201 -85 499 -156 180 -43 241 -68 199 -82 -6 -2 12 -11 39 -20
44 -14 50 -14 45 -1 -6 15 5 14 55 -4 6 -3 12 -3 12 0 0 3 -21 13 -47 22 -110
40 -171 65 -213 88 -25 14 -76 35 -114 47 -74 24 -192 83 -266 134 -43 30
-135 76 -148 76 -4 -1 4 -10 17 -21 33 -27 18 -36 -26 -15 -35 16 -36 19 -20
31 17 13 17 14 -3 20 -30 10 -90 64 -90 82 0 10 6 13 16 9 17 -6 17 -8 -31 66
-32 47 -50 64 -101 87 -28 13 -108 126 -124 176 -18 54 -42 107 -37 78z m340
-563 c19 -16 40 -30 46 -30 6 0 11 -4 11 -10 0 -22 -37 -8 -80 30 -31 27 -40
39 -28 40 10 0 33 -13 51 -30z"/>
<path d="M4980 5125 c0 -13 137 -74 190 -84 36 -7 73 -14 82 -17 13 -4 16 -1
12 10 -3 9 -12 16 -19 16 -7 0 -38 11 -69 25 -63 28 -70 30 -61 15 11 -18 -28
-11 -82 15 -29 13 -53 22 -53 20z"/>
<path d="M5250 5107 c14 -6 54 -23 89 -39 37 -16 68 -25 73 -20 13 13 -88 59
-142 65 -39 4 -41 3 -20 -6z"/>
<path d="M5775 5020 c3 -5 10 -10 16 -10 5 0 9 5 9 10 0 6 -7 10 -16 10 -8 0
-12 -4 -9 -10z"/>
<path d="M5296 5005 c10 -8 26 -14 34 -14 9 0 4 6 -10 14 -33 19 -49 19 -24 0z"/>
<path d="M5460 5016 c0 -2 7 -7 16 -10 8 -3 12 -2 9 4 -6 10 -25 14 -25 6z"/>
<path d="M5810 5001 c0 -5 9 -11 21 -14 16 -4 18 -3 8 9 -13 16 -29 19 -29 5z"/>
<path d="M5377 4951 c-5 -21 36 -61 64 -61 16 0 182 -41 224 -55 33 -11 -66
75 -105 92 -19 8 -60 18 -90 23 -30 4 -62 11 -71 15 -11 4 -18 0 -22 -14z"/>
<path d="M5275 4940 c27 -12 35 -12 35 0 0 6 -12 10 -27 9 -25 0 -26 -1 -8 -9z"/>
<path d="M5210 4930 c8 -5 20 -10 25 -10 6 0 3 5 -5 10 -8 5 -19 10 -25 10 -5
0 -3 -5 5 -10z"/>
<path d="M6511 4194 c0 -11 3 -14 6 -6 3 7 2 16 -1 19 -3 4 -6 -2 -5 -13z"/>
</g>
</svg>
